<?xml version="1.0" standalone="no"?>
<!DOCTYPE svg PUBLIC "-//W3C//DTD SVG 1.1//EN" "http://www.w3.org/Graphics/SVG/1.1/DTD/svg11.dtd" >
<svg>
<metadata>
Created by FontForge 20090914 at Sat Nov  9 09:20:46 2019
 By www-data
</metadata>
<defs>
<font id="squarespace-ui-font" horiz-adv-x="512" >
  <font-face 
    font-family="squarespace-ui-font"
    font-weight="400"
    font-stretch="normal"
    units-per-em="512"
    panose-1="2 0 5 3 0 0 0 0 0 0"
    ascent="480"
    descent="-32"
    bbox="0 -32.5339 512 480"
    underline-thickness="0"
    underline-position="0"
    unicode-range="U+E000-U+F066"
  />
<missing-glyph 
 />
    <glyph glyph-name=".notdef" 
 />
    <glyph glyph-name=".notdef" 
 />
    <glyph glyph-name="uniE000" unicode="&#xe000;" 
d="M299 395l64 -64l-96 -96l96 -96l-64 -64l-160 160z" />
    <glyph glyph-name="uniE001" unicode="&#xe001;" 
d="M491 224c0 65.333 -23 120.833 -69 166.5s-101.5 68.5 -166.5 68.5s-120.5 -22.833 -166.5 -68.5s-69 -101.167 -69 -166.5s23 -121 69 -167s101.5 -69 166.5 -69s120.5 23 166.5 69s69 101.667 69 167zM71 224c0 50.667 18 94 54 130s79.5 54 130.5 54
s94.5 -18 130.5 -54s54 -79.333 54 -130s-18 -94 -54 -130s-79.5 -54 -130.5 -54s-94.5 18 -130.5 54s-54 79.333 -54 130zM354 178v92h-105v58l-97 -104l97 -104v58h105z" />
    <glyph glyph-name="uniE002" unicode="&#xe002;" 
d="M262 55v98h180v142h-180v98l-194 -169z" />
    <glyph glyph-name="uniE003" unicode="&#xe003;" 
d="M192 395l-64 -64l96 -96l-96 -96l64 -64l160 160z" />
    <glyph glyph-name="uniE004" unicode="&#xe004;" 
d="M20 224c0 -65.333 23 -121 69 -167s101.5 -69 166.5 -69s120.5 23 166.5 69s69 101.667 69 167s-23 120.833 -69 166.5s-101.5 68.5 -166.5 68.5s-120.5 -22.833 -166.5 -68.5s-69 -101.167 -69 -166.5zM440 224c0 -50.667 -18 -94 -54 -130s-79.5 -54 -130.5 -54
s-94.5 18 -130.5 54s-54 79.333 -54 130s18 94 54 130s79.5 54 130.5 54s94.5 -18 130.5 -54s54 -79.333 54 -130zM157 270v-92h104v-58l98 104l-98 104v-58h-104z" />
    <glyph glyph-name="uniE005" unicode="&#xe005;" 
d="M256 393v-98h-179v-142h179v-98l195 169z" />
    <glyph glyph-name="uniE006" unicode="&#xe006;" 
d="M397 187l-35.001 33.999l-58 55l-28 26c-5.33301 6 -12 9 -20 9s-14.667 -3 -20 -9c-73.333 -69.333 -113.333 -107.666 -120 -114.999c-5.33301 -5.33301 -8 -12 -8 -20s2.66699 -15 8 -21c12.667 -13.333 26 -13.333 40 0l100 96l100 -96
c14.667 -13.333 28.334 -13.333 41.001 0c5.33301 6 8 13 8 21s-2.66699 14.667 -8 20z" />
    <glyph glyph-name="uniE007" unicode="&#xe007;" 
d="M255.5 -12c65 0 120.5 23 166.5 69s69 101.667 69 167s-23 120.833 -69 166.5s-101.5 68.5 -166.5 68.5s-120.5 -22.833 -166.5 -68.5s-69 -101.167 -69 -166.5s23 -121 69 -167s101.5 -69 166.5 -69zM255.5 408c51 0 94.5 -18 130.5 -54s54 -79.333 54 -130
s-18 -94 -54 -130s-79.5 -54 -130.5 -54s-94.5 18 -130.5 54s-54 79.333 -54 130s18 94 54 130s79.5 54 130.5 54zM209 125h92v105h58l-104 98l-103 -98h57v-105z" />
    <glyph glyph-name="uniE008" unicode="&#xe008;" 
d="M424 217h-98v-180h-142v180h-98l169 194z" />
    <glyph glyph-name="uniE009" unicode="&#xe009;" 
d="M397 261l-35.001 -34l-58 -55c-18.667 -17.333 -28 -26.333 -28 -27c-5.33301 -5.33301 -12 -8 -20 -8s-14.667 2.66699 -20 8c-73.333 70 -113.333 108.667 -120 116c-5.33301 5.33301 -8 12 -8 20s2.66699 15 8 21c12.667 12.667 26 12.667 40 0l100 -96l100 96
c14.667 12.667 28.334 12.667 41.001 0c5.33301 -6 8 -13 8 -21s-2.66699 -14.667 -8 -20z" />
    <glyph glyph-name="uniE00A" unicode="&#xe00a;" 
d="M255.5 459c-65 0 -120.5 -22.833 -166.5 -68.5s-69 -101.167 -69 -166.5s23 -121 69 -167s101.5 -69 166.5 -69s120.5 23 166.5 69s69 101.667 69 167s-23 120.833 -69 166.5s-101.5 68.5 -166.5 68.5zM255.5 40c-51 0 -94.5 18 -130.5 54s-54 79.333 -54 130
s18 94 54 130s79.5 54 130.5 54s94.5 -18 130.5 -54s54 -79.333 54 -130s-18 -94 -54 -130s-79.5 -54 -130.5 -54zM301 323h-92v-105h-57l103 -98l104 98h-58v105z" />
    <glyph glyph-name="uniE00B" unicode="&#xe00b;" 
d="M424 231h-98v180h-142v-180h-98l169 -194z" />
    <glyph glyph-name="uniE00C" unicode="&#xe00c;" 
d="M256 395c-47.333 0 -87.666 -16.667 -120.999 -50s-50 -73.666 -50 -120.999s16.667 -87.666 50 -120.999s73.666 -50 120.999 -50s87.666 16.667 120.999 50s50 73.666 50 120.999s-16.667 87.666 -50 120.999s-73.666 50 -120.999 50zM256 96
c-35.333 0 -65.5 12.5 -90.5 37.5s-37.5 55.167 -37.5 90.5s12.5 65.5 37.5 90.5s55.167 37.5 90.5 37.5s65.5 -12.5 90.5 -37.5s37.5 -55.167 37.5 -90.5s-12.5 -65.5 -37.5 -90.5s-55.167 -37.5 -90.5 -37.5zM277 215v116h-42v-139l79 -43l27 32z" />
    <glyph glyph-name="uniE00D" unicode="&#xe00d;" 
d="M256.5 459c-65 0 -120.5 -22.833 -166.5 -68.5s-69 -101.167 -69 -166.5s23 -121 69 -167s101.5 -69 166.5 -69s120.5 23 166.5 69s69 101.667 69 167s-23 120.833 -69 166.5s-101.5 68.5 -166.5 68.5zM256.5 40c-51 0 -94.5 18 -130.5 54s-54 79.333 -54 130
s18 94 54 130s79.5 54 130.5 54s94.5 -18 130.5 -54s54 -79.333 54 -130s-18 -94 -54 -130s-79.5 -54 -130.5 -54zM274 357h-36v-140l87 -88l26 26l-77 76v126z" />
    <glyph glyph-name="uniE00E" unicode="&#xe00e;" 
d="M433 217l-198 199h-171v-171l199 -198c6.66699 -6.66699 14.667 -10 24 -10s17.333 3.33301 24 10l122 122c6.66699 6.66699 10 14.667 10 24s-3.33301 17.333 -10 24zM160 277c-12 0 -22.167 4.16699 -30.5 12.5s-12.5 18.5 -12.5 30.5s4.16699 22.167 12.5 30.5
s18.5 12.5 30.5 12.5s22.167 -4.16699 30.5 -12.5s12.5 -18.5 12.5 -30.5s-4.16699 -22.167 -12.5 -30.5s-18.5 -12.5 -30.5 -12.5z" />
    <glyph glyph-name="uniE00F" unicode="&#xe00f;" 
d="M493 470c-1.33301 4 -3.83301 6.83203 -7.5 8.49902s-7.5 1.83398 -11.5 0.500977s-7 -4 -9 -8s-2.33301 -8 -1 -12c18.667 -53.333 -1 -102 -59 -146l-14 21c-6 8 -14 12 -24 12h-81c-10 0 -19.333 -3 -28 -9l-238 -168c-5.33301 -4 -8.66602 -9.5 -9.99902 -16.5
s0 -13.5 4 -19.5l108 -157c8 -10.667 19 -11.334 33 -2.00098l238 169c8 6 13.667 14 17 24l26 80c3.33301 10 2 19 -4 27l-9 13c28.667 22 50.667 48.833 66 80.5s16.666 65.834 3.99902 102.501zM382 229.999c-8.66699 -6.66699 -18.6689 -9 -30.002 -7
s-20.166 7.66699 -26.499 17s-8.5 19.666 -6.5 30.999s7.66699 20.333 17 27c15.333 11.333 31 11 47 -1c-5.33301 -3.33301 -9.66602 -5.66602 -12.999 -6.99902c-8.66699 -4 -11 -10.667 -7 -20c2.66699 -6 7.33398 -9 14.001 -9c2 0 4 0.333008 6 1
c5.33301 2.66699 10.666 5.66699 15.999 9c2.66699 -17.333 -3 -31 -17 -41z" />
    <glyph glyph-name="uniE010" unicode="&#xe010;" 
d="M363 373h-214c-17.333 0 -32.333 -6.16699 -45 -18.5s-19 -27.5 -19 -45.5v-128c0 -17.333 6.33301 -32.333 19 -45s27.667 -19 45 -19h22v-85l85 85h107c17.333 0 32.333 6.33301 45 19s19 27.667 19 45v128c0 18 -6.33301 33.167 -19 45.5s-27.667 18.5 -45 18.5z" />
    <glyph glyph-name="uniE011" unicode="&#xe011;" 
d="M410 403h-307c-14 0 -26.167 -5 -36.5 -15s-15.5 -22 -15.5 -36v-179c0 -14 5.16699 -26 15.5 -36s22.5 -15 36.5 -15h102l102 -77v77h103c14 0 26 5 36 15s15 22 15 36v179c0 14 -5 26 -15 36s-22 15 -36 15z" />
    <glyph glyph-name="uniE012" unicode="&#xe012;" 
d="M256 280c0 26 -9.16699 48 -27.5 66s-40.333 27 -66 27s-47.667 -9 -66 -27s-27.5 -40 -27.5 -66c0 -37.333 12.667 -68.333 38 -93c10 -10 27.333 -24.333 52 -43s47.167 -35 67.5 -49s30.166 -20.667 29.499 -20c76.667 52 126.334 89.333 149.001 112
c25.333 24.667 38 55.667 38 93c0 26 -9.16699 48 -27.5 66s-40.333 27 -66 27s-47.667 -9 -66 -27s-27.5 -40 -27.5 -66v0z" />
    <glyph glyph-name="uniE013" unicode="&#xe013;" 
d="M437 373c-21.333 20 -46.833 30 -76.5 30s-55.167 -10 -76.5 -30l-29 -26l-29 26c-20.667 20 -46 30 -76 30s-55.667 -10 -77 -30c-23.333 -22 -35 -48.667 -35 -80s11.667 -58 35 -80l182 -169l182 169c24 22 36 48.667 36 80s-12 58 -36 80zM410 239l-155 -146
l-155 146c-14 14 -21 32.167 -21 54.5s6.33301 39.166 19 50.499c14 13.333 31.333 20 52 20c16.667 0 34 -8.33301 52 -25l53 -47l53 47c18 16.667 35.667 25 53 25c20 0 37.333 -6.66699 52 -20c12.667 -11.333 19 -28.166 19 -50.499s-7.33301 -40.5 -22 -54.5z" />
    <glyph glyph-name="uniE014" unicode="&#xe014;" 
d="M240 64h-144v144h144v-144zM128 96h80v80h-80v-80zM416 64h-144v144h144v-144zM304 96h80v80h-80v-80zM240 240h-144v144h144v-144zM128 272h80v80h-80v-80zM416 240h-144v144h144v-144zM304 272h80v80h-80v-80z" />
    <glyph glyph-name="uniE015" unicode="&#xe015;" 
d="M363 352v-21c0 -6 -2.16699 -11.167 -6.5 -15.5s-9.5 -6.5 -15.5 -6.5h-42c-6 0 -11.167 2.16699 -15.5 6.5s-6.5 9.5 -6.5 15.5v21h-42v-21c0 -6 -2.16699 -11.167 -6.5 -15.5s-9.5 -6.5 -15.5 -6.5h-42c-6 0 -11.167 2.16699 -15.5 6.5s-6.5 9.5 -6.5 15.5v21
c-17.333 0 -32.333 -6.33301 -45 -19s-19 -27.667 -19 -45v-171c0 -17.333 6.33301 -32.333 19 -45s27.667 -19 45 -19h214c17.333 0 32.333 6.33301 45 19s19 27.667 19 45v171c0 17.333 -6.33301 32.333 -19 45s-27.667 19 -45 19zM384 96h-256v171h256v-171zM171 373
c0 6 2 11.167 6 15.5s9 6.5 15 6.5s11 -2.16699 15 -6.5s6 -9.5 6 -15.5v-21c0 -6 -2 -11 -6 -15s-9 -6 -15 -6s-11 2 -15 6s-6 9 -6 15v21zM299 373c0 6 2 11.167 6 15.5s9 6.5 15 6.5s11 -2.16699 15 -6.5s6 -9.5 6 -15.5v-21c0 -6 -2 -11 -6 -15s-9 -6 -15 -6
s-11 2 -15 6s-6 9 -6 15v21z" />
    <glyph glyph-name="uniE016" unicode="&#xe016;" 
d="M399 367c-4 4 -9.00195 6 -15.002 6s-11 -2 -15 -6l-38 -38l-8 8c-12 12 -27.167 18 -45.5 18s-33.5 -6 -45.5 -18l-89 -89c-12.667 -12.667 -19 -27.834 -19 -45.501s6.33301 -32.834 19 -45.501l8 -8l-38 -38c-4 -4 -6 -9 -6 -15s2 -11 6 -15s9 -6 15 -6s11 2 15 6
l38 38l8 -8c12.667 -12.667 27.834 -19 45.501 -19s32.834 6.33301 45.501 19l89 89c12.667 12.667 19 27.834 19 45.501s-6.33301 32.834 -19 45.501l-8 8l38 38c4 4 6 9 6 15s-2 11 -6 15zM338.998 260c4 -4 6 -9 6 -15s-2 -11 -6 -15l-89 -89c-4 -4 -9 -6 -15 -6
s-11 2 -15 6l-9 8l17 17c4.66699 4.66699 7 9.83398 7 15.501s-2.16699 10.667 -6.5 15s-9.33301 6.5 -15 6.5s-10.834 -2.33301 -15.501 -7l-17 -17l-8 9c-4 4 -6 9 -6 15s2 11 6 15l89 89c4 4 9 6 15 6s11 -2 15 -6l9 -8l-17 -17
c-4.66699 -4.66699 -7 -9.83398 -7 -15.501s2.16699 -10.667 6.5 -15s9.33301 -6.5 15 -6.5s10.834 2.33301 15.501 7l17 17z" />
    <glyph glyph-name="uniE017" unicode="&#xe017;" 
d="M253.5 459.5c-65 -1 -120.333 -24.833 -166 -71.5s-68 -102.5 -67 -167.5s24.833 -120.167 71.5 -165.5s102.5 -67.5 167.5 -66.5s120.167 24.833 165.5 71.5s67.5 102.5 66.5 167.5s-24.667 120.167 -71 165.5s-102 67.5 -167 66.5zM279 381c20.667 0 31 -10 31 -30
c0 -10 -3.83301 -18.833 -11.5 -26.5s-18.167 -11.5 -31.5 -11.5c-22.667 0 -33.667 10 -33 30c0 9.33301 4 18 12 26s19 12 33 12zM218 77c-20.667 0 -26.333 17.667 -17 53l19 78c2.66699 11.333 2.66699 17 0 17s-8.33398 -1.83301 -17.001 -5.5s-16 -7.5 -22 -11.5
l-8 14c18.667 15.333 38.167 27.833 58.5 37.5s35.833 14.5 46.5 14.5c16 0 19.667 -16.333 11 -49l-22 -81c-3.33301 -13.333 -2.66602 -20 2.00098 -20c8.66699 0 21 6.33301 37 19l9 -13c-17.333 -17.333 -35.333 -30.5 -54 -39.5s-33 -13.5 -43 -13.5z" />
    <glyph glyph-name="uniE018" unicode="&#xe018;" 
d="M256 439c-59.333 0 -110 -21 -152 -63s-63 -92.667 -63 -152s21 -110 63 -152s92.667 -63 152 -63s110 21 152 63s63 92.667 63 152s-21 110 -63 152s-92.667 63 -152 63zM300 224l79 -78l-44 -45l-79 79l-78 -79l-44 45l78 78l-78 78l44 45l78 -79l79 79l44 -45z" />
    <glyph glyph-name="uniE019" unicode="&#xe019;" 
d="M213 53l-137.999 140.997c-10.667 10.667 -16.334 23.334 -17.001 38.001s4 27.334 14 38.001c11.333 10.667 23 16.834 35 18.501s23.333 -2.5 34 -12.5l58 -57l113 161c8 12 19.333 19.333 34 22s28 -0.333008 40 -9s19.333 -20.167 22 -34.5s-0.333008 -27.5 -9 -39.5
z" />
    <glyph glyph-name="uniE01A" unicode="&#xe01a;" 
d="M427 331l-64 64l-96 -96l-96 96l-64 -64l96 -96l-96 -96l64 -64l96 96l96 -96l64 64l-96 96z" />
    <glyph glyph-name="uniE01B" unicode="&#xe01b;" 
d="M235 245v1c0 11.333 4.16699 21.166 12.5 29.499s18.333 12.5 30 12.5s21.667 -4.16699 30 -12.5s12.5 -18.166 12.5 -29.499v-1c0 -12 -4.16699 -22.167 -12.5 -30.5s-18.333 -12.5 -30 -12.5s-21.667 4.16699 -30 12.5s-12.5 18.5 -12.5 30.5zM277.5 373
c-19.667 0 -39.8311 -4.33398 -60.498 -13.001s-38.5 -19.334 -53.5 -32.001s-28.667 -25.167 -41 -37.5s-21.5 -22.833 -27.5 -31.5l-10 -14l10.5 -13.5c4.33301 -5.66699 13.333 -15.834 27 -30.501s27.5 -27.667 41.5 -39s31.5 -21.666 52.5 -30.999s41.333 -14 61 -14
s39.667 4.5 60 13.5s38.166 19.667 53.499 32s29 24.833 41 37.5s21.333 23.334 28 32.001l9 13c-2 4 -5.16699 8.83301 -9.5 14.5s-13.333 15.834 -27 30.501s-27.667 27.667 -42 39s-31.833 21.5 -52.5 30.5s-40.834 13.5 -60.501 13.5zM277.003 164.999
c-22 0 -40.833 7.83301 -56.5 23.5s-23.5 34.5 -23.5 56.5s7.83301 40.833 23.5 56.5s34.5 23.5 56.5 23.5s40.833 -7.83301 56.5 -23.5s23.5 -34.5 23.5 -56.5s-7.83301 -40.833 -23.5 -56.5s-34.5 -23.5 -56.5 -23.5z" />
    <glyph glyph-name="uniE01C" unicode="&#xe01c;" 
d="M185 202h143v46h-143v-46zM384 454h-256c-14 0 -26 -5 -36 -15s-15 -22 -15 -36v-358c0 -14 5 -26 15 -36s22 -15 36 -15h256c14 0 26 5 36 15s15 22 15 36v358c0 14 -5 26 -15 36s-22 15 -36 15zM384 45h-256v358h256v-358zM328 348h-143v-45h143v45zM328 147h-143v-45
h143v45z" />
    <glyph glyph-name="uniE01D" unicode="&#xe01d;" 
d="M253 469.5c-68 -1 -125.666 -25.832 -172.999 -74.499s-70.5 -106.834 -69.5 -174.501s25.833 -125.167 74.5 -172.5s106.834 -70.5 174.501 -69.5s125.167 25.667 172.5 74s70.666 106.5 69.999 174.5s-25.334 125.667 -74.001 173s-107 70.5 -175 69.5zM258.501 30.001
c-53.667 -0.666992 -99.667 17.666 -138 54.999s-57.833 82.833 -58.5 136.5s17.666 99.667 54.999 138s82.833 57.833 136.5 58.5s99.667 -17.666 138 -54.999s57.833 -82.833 58.5 -136.5s-17.666 -99.667 -54.999 -138s-82.833 -57.833 -136.5 -58.5zM140.001 109.001
c8.66699 0.666992 20 2.50195 34 5.50195s36 10 66 21s52.333 24 67 39s27.5 36.833 38.5 65.5s18.333 52 22 70s5.5 28.333 5.5 31c-8.66699 -0.666992 -20 -2.33398 -34 -5.00098s-36 -9.66699 -66 -21s-52.333 -24.5 -67 -39.5s-27.5 -36.333 -38.5 -64
s-18.5 -51.834 -22.5 -72.501zM231.001 250.003c18 18 49.667 33 95 45c-12 -46 -27 -77.667 -45 -95c-6.66699 -7.33301 -15 -11 -25 -11s-18.333 3.5 -25 10.5s-10 15.5 -10 25.5s3.33301 18.333 10 25z" />
    <glyph glyph-name="uniE01E" unicode="&#xe01e;" 
d="M199 166l-103 41v-35l103 -41v35zM199 272l-103 41v-35l103 -40v34zM474.5 450c-7.66699 5.33301 -15.501 6.33301 -23.501 3l-196 -79l-195 79c-8.66699 3.33301 -16.667 2.33301 -24 -3s-11 -12.333 -11 -21v-328c0 -11.333 5.33301 -19.333 16 -24l204 -81
c2.66699 -1.33301 4.33398 -2 5.00098 -2h5.5h4.5l5 2l205 81c10.667 4.66699 16 12.667 16 24v328c0 8.66699 -3.83301 15.667 -11.5 21zM229.999 46l-164 65v287l164 -65v-287zM444.999 111l-164 -65v287l164 65v-287zM413.999 207l-102 -41v-35l102 41v35zM413.999 313
l-102 -41v-34l102 40v35z" />
    <glyph glyph-name="uniE01F" unicode="&#xe01f;" 
d="M252 469.5c-68 -1 -125.666 -25.832 -172.999 -74.499s-70.5 -106.834 -69.5 -174.501s25.833 -125.167 74.5 -172.5s106.834 -70.5 174.501 -69.5s125.167 25.667 172.5 74s70.666 106.5 69.999 174.5s-25.334 125.667 -74.001 173s-107 70.5 -175 69.5zM257.501 30.001
c-53.667 -0.666992 -99.667 17.666 -138 54.999s-57.833 82.833 -58.5 136.5s17.666 99.667 54.999 138s82.833 57.833 136.5 58.5s99.667 -17.666 138 -54.999s57.833 -82.833 58.5 -136.5s-17.666 -99.667 -54.999 -138s-82.833 -57.833 -136.5 -58.5zM195.001 182.001
c-10.667 0 -18.5 3.83203 -23.5 11.499s-7.5 17.834 -7.5 30.501c0 28 10.333 42 31 42c4 0 8.5 -1.5 13.5 -4.5s9.16699 -7.83301 12.5 -14.5l32 16c-12.667 22.667 -33.667 34 -63 34c-20 0 -36.5 -6.5 -49.5 -19.5s-19.5 -30.833 -19.5 -53.5s6.5 -40.5 19.5 -53.5
s29.833 -19.5 50.5 -19.5c13.333 0 25.5 3.33301 36.5 10s19.5 15.667 25.5 27l-29 15c-5.33301 -14 -15 -21 -29 -21zM331.001 182c-10.667 0 -18.668 3.83203 -24.001 11.499s-8 17.834 -8 30.501c0 28 10.667 42 32 42c4.66699 0 9.33398 -1.5 14.001 -4.5
s8.66699 -7.83301 12 -14.5l32 16c-12.667 22.667 -33.667 34 -63 34c-20 0 -36.5 -6.5 -49.5 -19.5s-19.5 -30.833 -19.5 -53.5c0 -23.333 6.5 -41.333 19.5 -54s30.167 -19 51.5 -19c12.667 0 24.5 3.33301 35.5 10s19.5 15.667 25.5 27l-29 15
c-5.33301 -14 -15 -21 -29 -21z" />
    <glyph glyph-name="uniE020" unicode="&#xe020;" 
d="M128 395c-6 0 -11 -2.16699 -15 -6.5s-6 -9.5 -6 -15.5v-298c0 -6 1.5 -9.83301 4.5 -11.5s6.83301 -0.5 11.5 3.5l95 79c4.66699 4 10.167 6 16.5 6s11.833 -2 16.5 -6l95 -79c4.66699 -4 8.66699 -5.16699 12 -3.5s5 5.5 5 11.5v298c0 6 -2.16699 11.167 -6.5 15.5
s-9.5 6.5 -15.5 6.5h-213z" />
    <glyph glyph-name="uniE021" unicode="&#xe021;" 
d="M304 419c12 0 21.501 -3.66699 28.501 -11s10.5 -16.666 10.5 -27.999c0 -12.667 -5.16699 -23.834 -15.5 -33.501s-22.5 -14.5 -36.5 -14.5c-12.667 0 -22.334 3.33301 -29.001 10s-10 16 -10 28s4.66699 23.167 14 33.5s22 15.5 38 15.5zM223.001 29
c-26 0 -32.999 23 -20.999 69l24 99c3.33301 14.667 3.33301 22 0 22s-10.5 -2.33301 -21.5 -7s-20.167 -9.66699 -27.5 -15l-10 18c23.333 20 47.833 36.167 73.5 48.5s45.167 18.5 58.5 18.5c20.667 0 25.334 -21 14.001 -63l-27 -104c-4.66699 -16.667 -4 -25 2 -25
c11.333 0 26.666 8 45.999 24l12 -16c-22 -22 -44.833 -39 -68.5 -51s-41.834 -18 -54.501 -18z" />
    <glyph glyph-name="uniE022" unicode="&#xe022;" 
d="M62 419l0.00195312 -61.002c59.333 0 114.166 -14.667 164.499 -44s90.166 -69.166 119.499 -119.499s44 -105.5 44 -165.5h61c0 70.667 -17.333 135.834 -52 195.501s-82 107 -142 142s-125 52.5 -195 52.5zM62.002 296.998l-0.000976562 -60
c56.667 0 105.334 -20.333 146.001 -61s61 -89.667 61 -147h61c0 74 -26.167 137.167 -78.5 189.5s-115.5 78.5 -189.5 78.5zM120.001 145.998c-16 0 -29.667 -5.66699 -41 -17s-17 -25.166 -17 -41.499s5.66699 -30.166 17 -41.499s25 -17 41 -17s29.667 5.66699 41 17
s17 25.166 17 41.499s-5.66699 30.166 -17 41.499s-25 17 -41 17z" />
    <glyph glyph-name="uniE023" unicode="&#xe023;" 
d="M256 439c-59.333 0 -110 -21 -152 -63s-63 -92.667 -63 -152s21 -110 63 -152s92.667 -63 152 -63s110 21 152 63s63 92.667 63 152s-21 110 -63 152s-92.667 63 -152 63zM300 224l79 -78l-44 -45l-79 79l-78 -79l-44 45l78 78l-78 78l44 45l78 -79l79 79l44 -45z" />
    <glyph glyph-name="uniE024" unicode="&#xe024;" 
d="M405 267h-106v106h-107v-106h-107v-107h107v-107h107v107h106v107z" />
    <glyph glyph-name="uniE025" unicode="&#xe025;" 
d="M107 288h320v-107h-320v107z" />
    <glyph glyph-name="uniE026" unicode="&#xe026;" 
d="M363 139h-214v213h86l42 64h-192v-341h342v128l-22 -22zM171 181c1.33301 3.33301 3.83203 7.5 7.49902 12.5s12.834 13.333 27.501 25s31.334 20.5 50.001 26.5c40 13.333 61.333 13.333 64 0v-85l128 128l-128 128v-64c-33.333 -4.66699 -61.666 -19 -84.999 -43
c-12.667 -12.667 -24.334 -29.667 -35.001 -51s-18.334 -39.333 -23.001 -54z" />
    <glyph glyph-name="uniE027" unicode="&#xe027;" 
d="M0 320h512l-32 -320h-448zM464 384l16 -32h-448l32 64h176l16 -32h208z" />
    <glyph glyph-name="uniE028" unicode="&#xe028;" 
d="M416 0l96 256h-416l-96 -256h416zM64 288l-64 -288v416h144l64 -64h208v-64h-352z" />
    <glyph glyph-name="uniE029" unicode="&#xe029;" 
d="M32 384h448v-96h-448v96zM32 256h448v-96h-448v96zM32 128h448v-96h-448v96z" />
    <glyph glyph-name="uniE02A" unicode="&#xe02a;" 
d="M0 480h128v-128h-128v128zM192 448h320v-64h-320v64zM0 288h128v-128h-128v128zM192 256h320v-64h-320v64zM0 96h128v-128h-128v128zM192 64h320v-64h-320v64z" />
    <glyph glyph-name="uniE02B" unicode="&#xe02b;" 
d="M384 147c-17.333 0 -32.666 -5.33301 -45.999 -16l-134 80c0.666992 4.66699 1 9 1 13s-0.333008 8.33301 -1 13l134 80c13.333 -10.667 28.666 -16 45.999 -16c21.333 0 39.5 7.5 54.5 22.5s22.5 33 22.5 54s-7.5 39 -22.5 54s-33.167 22.5 -54.5 22.5
s-39.5 -7.5 -54.5 -22.5s-22.5 -32.833 -22.5 -53.5c0 -4 0.666992 -8.33301 2 -13l-134 -80c-14 10.667 -29.667 16 -47 16c-21.333 0 -39.5 -7.5 -54.5 -22.5s-22.5 -33.167 -22.5 -54.5s7.5 -39.5 22.5 -54.5s33.167 -22.5 54.5 -22.5c17.333 0 33 5.33301 47 16l134 -80
c-1.33301 -4.66699 -2 -9 -2 -13c0 -20.667 7.5 -38.5 22.5 -53.5s33.167 -22.5 54.5 -22.5s39.5 7.5 54.5 22.5s22.5 33 22.5 54s-7.5 39 -22.5 54s-33.167 22.5 -54.5 22.5z" />
    <glyph glyph-name="uniE02C" unicode="&#xe02c;" 
d="M347 -32l21 21l-220 219l220 219l-21 21l-240 -240z" />
    <glyph glyph-name="uniE02D" unicode="&#xe02d;" 
d="M165 -32l-21 21l219 219l-219 219l21 21l240 -240z" />
    <glyph glyph-name="uniE02E" unicode="&#xe02e;" 
d="M170 330l192 -192l-20 -20l-192 192zM342 330l20 -20l-192 -192l-20 20z" />
    <glyph glyph-name="uniE02F" unicode="&#xe02f;" 
d="M398 388c-33.333 32.667 -73.5 49 -120.5 49s-87.167 -16.333 -120.5 -49s-50 -72.167 -50 -118.5s16.667 -85.833 50 -118.5l120 -119l121 119c33.333 32.667 50 72.167 50 118.5s-16.667 85.833 -50 118.5zM224.5 214c-14.333 14.667 -21.5 32.334 -21.5 53.001
s7.16699 38.167 21.5 52.5s31.833 21.5 52.5 21.5s38.334 -7.16699 53.001 -21.5s22 -31.833 22 -52.5s-7.33301 -38.334 -22 -53.001s-32.334 -22 -53.001 -22s-38.167 7.33301 -52.5 22z" />
    <glyph glyph-name="uniE030" unicode="&#xe030;" 
d="M112 320h288v-32h-288v32zM112 240h288v-32h-288v32zM112 160h288v-32h-288v32z" />
    <glyph glyph-name="uniE031" unicode="&#xe031;" 
d="M320 160h-128v128h128v-128zM224 192h64v64h-64v-64z" />
    <glyph glyph-name="uniF000" unicode="&#xf000;" horiz-adv-x="0" 
d="M0 480l512 -512h-512v512z" />
    <glyph glyph-name="uniF065" unicode="&#xf065;" horiz-adv-x="438" 
d="M216 178.5c0 -2.33301 -0.999023 -4.5 -2.99902 -6.5l-95 -95l41 -41c4 -4 6 -8.5 6 -13.5s-1.83301 -9.16699 -5.5 -12.5s-8.16699 -5 -13.5 -5h-128c-4.66699 0 -8.83398 1.66699 -12.501 5s-5.5 7.66602 -5.5 12.999v128c-0 4.66699 1.83301 8.83398 5.5 12.501
s8 5.5 13 5.5s9.16699 -1.66699 12.5 -5l41 -41l95 94c2 2 4.16699 3 6.5 3s4.5 -1 6.5 -3l33 -32c2 -2 3 -4.16699 3 -6.5zM439.001 425l-0.000976562 -128c0 -4.66699 -1.83301 -8.83398 -5.5 -12.501s-8 -5.5 -13 -5.5s-9.16699 1.66699 -12.5 5l-41 41l-95 -94
c-2 -2 -4.33301 -3 -7 -3s-4.66699 1 -6 3l-33 32c-2 2 -3 4.16699 -3 6.5s1 4.5 3 6.5l95 95l-41 41c-4 4 -6 8.5 -6 13.5s1.83301 9.16699 5.5 12.5s8.16699 5 13.5 5h128c4.66699 0 8.83398 -1.66699 12.501 -5s5.5 -7.66602 5.5 -12.999z" />
    <glyph glyph-name="uniF066" unicode="&#xf066;" horiz-adv-x="438" 
d="M219 206v-127.999c0 -5.33301 -1.66699 -9.83301 -5 -13.5s-7.5 -5.5 -12.5 -5.5s-9.5 2 -13.5 6l-41 41l-95 -95c-2 -2 -4.16699 -3 -6.5 -3s-4.5 1 -6.5 3l-32 33c-2 2 -3 4.16699 -3 6.5s1 4.5 3 6.5l94 95l-41 41c-3.33301 3.33301 -5 7.5 -5 12.5
s1.83301 9.33301 5.5 13s7.83398 5.5 12.501 5.5h128c5.33301 0 9.66602 -1.83301 12.999 -5.5s5 -7.83398 5 -12.501zM435 397.501c0 -2.33301 -0.999023 -4.50098 -2.99902 -6.50098l-95 -95l42 -41c3.33301 -3.33301 5 -7.5 5 -12.5s-1.83301 -9.33301 -5.5 -13
s-7.83398 -5.5 -12.501 -5.5h-128c-5.33301 0 -9.83301 1.83301 -13.5 5.5s-5.5 7.83398 -5.5 12.501v128c0 5.33301 1.83301 9.83301 5.5 13.5s8 5.5 13 5.5s9.5 -2 13.5 -6l41 -41l95 95c1.33301 2 3.33301 3 6 3s5 -1 7 -3l32 -33c2 -2 3 -4.16699 3 -6.5z" />
    <glyph glyph-name=".null" horiz-adv-x="0" 
 />
    <glyph glyph-name="nonmarkingreturn" horiz-adv-x="170" 
 />
  </font>
</defs>
</svg>
